<svg width="180" height="55" viewBox="0 0 180 55" fill="none" xmlns="http://www.w3.org/2000/svg">
<g clip-path="url(#clip0_1987_20946)">
<path d="M0 7.33333C0 3.28324 3.17698 0 7.09598 0H172.432C176.351 0 179.528 3.28325 179.528 7.33333V47.6667C179.528 51.7168 176.351 55 172.432 55H7.09598C3.17698 55 0 51.7168 0 47.6667V7.33333Z" fill="white"/>
<path fill-rule="evenodd" clip-rule="evenodd" d="M0 47.6667V7.33333C0 3.28325 3.17698 0 7.09598 0H172.432C176.351 0 179.528 3.28324 179.528 7.33333V47.6667C179.528 51.7168 176.351 55 172.432 55H7.09598C3.17698 55 0 51.7168 0 47.6667ZM1.0644 47.6667V7.33333C1.0644 3.89076 3.76483 1.1 7.09598 1.1H172.432C175.763 1.1 178.464 3.89076 178.464 7.33333V47.6667C178.464 51.1092 175.763 53.9 172.432 53.9H7.09598C3.76483 53.9 1.0644 51.1092 1.0644 47.6667Z" fill="black" fill-opacity="0.1"/>
<path d="M40.5679 28.6203C40.5496 25.3968 41.9628 22.9674 44.8167 21.176C43.2205 18.8127 40.8057 17.5129 37.6225 17.2624C34.6085 17.0166 31.3109 19.0774 30.1035 19.0774C28.8275 19.0774 25.9095 17.3475 23.6136 17.3475C18.8754 17.4231 13.8398 21.2516 13.8398 29.041C13.8398 31.3428 14.2469 33.7203 15.061 36.1687C16.1495 39.3922 20.0736 47.2903 24.167 47.1626C26.3074 47.1107 27.8213 45.5934 30.6066 45.5934C33.3096 45.5934 34.7091 47.1626 37.0965 47.1626C41.2264 47.1012 44.7755 39.9216 45.8092 36.6886C40.2706 33.9897 40.5679 28.7858 40.5679 28.6203V28.6203ZM35.761 14.2043C38.0798 11.3589 37.8694 8.76878 37.8008 7.83765C35.7519 7.96054 33.3828 9.27925 32.0335 10.9005C30.5471 12.6398 29.6736 14.7904 29.8611 17.2151C32.0747 17.39 34.0962 16.2131 35.761 14.2043V14.2043Z" fill="black"/>
<path d="M65.5508 39.801H63.2017L61.915 35.603H57.4424L56.2167 39.801H53.9297L58.3609 25.5093H61.0978L65.5508 39.801ZM61.5271 33.8418L60.3634 30.1099C60.2403 29.7287 60.0097 28.8309 59.6694 27.4176H59.628C59.4925 28.0255 59.2742 28.9233 58.9743 30.1099L57.8313 33.8418H61.5271Z" fill="black"/>
<path d="M76.9463 34.5217C76.9463 36.2743 76.4902 37.6596 75.5779 38.6766C74.7607 39.582 73.746 40.0341 72.5348 40.0341C71.2273 40.0341 70.2881 39.5465 69.7161 38.5714H69.6747V44H67.4695V32.8882C67.4695 31.7864 67.4416 30.6556 67.3878 29.4957H69.3272L69.4503 31.1292H69.4917C70.2271 29.8985 71.3432 29.2842 72.8409 29.2842C74.0118 29.2842 74.9893 29.7642 75.7713 30.7254C76.5553 31.6876 76.9463 32.9527 76.9463 34.5217ZM74.6997 34.6054C74.6997 33.6024 74.4825 32.7755 74.046 32.1247C73.5691 31.446 72.9289 31.1066 72.1262 31.1066C71.5821 31.1066 71.0877 31.2956 70.646 31.6683C70.2033 32.0441 69.9137 32.5349 69.7782 33.1428C69.7099 33.4263 69.6758 33.6582 69.6758 33.8408V35.5591C69.6758 36.3087 69.8971 36.9412 70.3398 37.4577C70.7826 37.9743 71.3577 38.232 72.0652 38.232C72.8958 38.232 73.5422 37.8991 74.0046 37.2354C74.468 36.5707 74.6997 35.6944 74.6997 34.6054Z" fill="black"/>
<path d="M88.363 34.5217C88.363 36.2743 87.9068 37.6596 86.9935 38.6766C86.1774 39.582 85.1626 40.0341 83.9514 40.0341C82.644 40.0341 81.7048 39.5465 81.1338 38.5714H81.0924V44H78.8872V32.8882C78.8872 31.7864 78.8592 30.6556 78.8054 29.4957H80.7449L80.868 31.1292H80.9093C81.6437 29.8985 82.7598 29.2842 84.2586 29.2842C85.4285 29.2842 86.406 29.7642 87.19 30.7254C87.9709 31.6876 88.363 32.9527 88.363 34.5217ZM86.1163 34.6054C86.1163 33.6024 85.8981 32.7755 85.4616 32.1247C84.9847 31.446 84.3465 31.1066 83.5428 31.1066C82.9977 31.1066 82.5043 31.2956 82.0616 31.6683C81.6189 32.0441 81.3303 32.5349 81.1948 33.1428C81.1276 33.4263 81.0924 33.6582 81.0924 33.8408V35.5591C81.0924 36.3087 81.3138 36.9412 81.7544 37.4577C82.1971 37.9732 82.7722 38.232 83.4818 38.232C84.3124 38.232 84.9589 37.8991 85.4212 37.2354C85.8846 36.5707 86.1163 35.6944 86.1163 34.6054Z" fill="black"/>
<path d="M101.127 35.7933C101.127 37.009 100.721 37.998 99.9046 38.7616C99.0078 39.596 97.7593 40.0127 96.155 40.0127C94.6738 40.0127 93.4864 39.7163 92.5875 39.1224L93.0985 37.2141C94.0666 37.8219 95.1289 38.1269 96.2864 38.1269C97.117 38.1269 97.7634 37.9315 98.2279 37.5427C98.6902 37.1539 98.9209 36.632 98.9209 35.9812C98.9209 35.4013 98.7306 34.9127 98.3489 34.5164C97.9693 34.1201 97.3352 33.7518 96.4498 33.4113C94.0397 32.4781 92.8357 31.111 92.8357 29.3133C92.8357 28.1384 93.2578 27.1751 94.1028 26.4255C94.9448 25.6748 96.0681 25.3 97.4728 25.3C98.7254 25.3 99.766 25.5266 100.597 25.9788L100.045 27.8452C99.2695 27.4071 98.3923 27.188 97.4107 27.188C96.635 27.188 96.0288 27.3867 95.5944 27.7819C95.2272 28.1352 95.0431 28.5658 95.0431 29.0759C95.0431 29.6408 95.253 30.108 95.6751 30.4753C96.0423 30.8146 96.7094 31.1819 97.6776 31.5782C98.8619 32.0732 99.7318 32.6521 100.291 33.3158C100.849 33.9773 101.127 34.8053 101.127 35.7933Z" fill="black"/>
<path d="M108.418 31.2142H105.987V36.2176C105.987 37.4902 106.416 38.1259 107.274 38.1259C107.668 38.1259 107.995 38.0905 108.254 38.0196L108.315 39.7583C107.88 39.9269 107.308 40.0117 106.6 40.0117C105.729 40.0117 105.048 39.7357 104.557 39.1848C104.068 38.6328 103.821 37.7071 103.821 36.4066V31.2121H102.373V29.4938H103.821V27.6069L105.987 26.9282V29.4938H108.418V31.2142Z" fill="black"/>
<path d="M119.386 34.5636C119.386 36.1476 118.949 37.4481 118.078 38.4651C117.165 39.5122 115.952 40.0341 114.441 40.0341C112.985 40.0341 111.825 39.5326 110.961 38.5295C110.096 37.5265 109.664 36.2603 109.664 34.7343C109.664 33.1374 110.108 31.8294 111.001 30.8124C111.892 29.7943 113.094 29.2853 114.605 29.2853C116.061 29.2853 117.233 29.7868 118.117 30.7909C118.964 31.7649 119.386 33.0225 119.386 34.5636ZM117.098 34.6377C117.098 33.6872 116.902 32.8721 116.506 32.1923C116.044 31.3697 115.383 30.9595 114.526 30.9595C113.64 30.9595 112.966 31.3708 112.504 32.1923C112.108 32.8732 111.912 33.7012 111.912 34.6806C111.912 35.631 112.108 36.4461 112.504 37.1248C112.981 37.9475 113.647 38.3577 114.506 38.3577C115.348 38.3577 116.009 37.9389 116.486 37.1034C116.893 36.4107 117.098 35.587 117.098 34.6377Z" fill="black"/>
<path d="M126.554 31.5093C126.335 31.4674 126.103 31.446 125.858 31.446C125.083 31.446 124.483 31.7499 124.061 32.3588C123.693 32.8958 123.509 33.5745 123.509 34.3939V39.801H121.305L121.326 32.7411C121.326 31.5534 121.298 30.4719 121.243 29.4968H123.164L123.245 31.4685H123.306C123.538 30.7909 123.906 30.2453 124.408 29.8362C124.9 29.4678 125.43 29.2842 126.002 29.2842C126.206 29.2842 126.39 29.2992 126.554 29.3261V31.5093Z" fill="black"/>
<path d="M136.416 34.1609C136.416 34.5711 136.39 34.9169 136.335 35.1994H129.719C129.745 36.2174 130.065 36.996 130.679 37.533C131.237 38.013 131.958 38.2536 132.843 38.2536C133.822 38.2536 134.716 38.0914 135.52 37.766L135.865 39.3554C134.926 39.7807 133.817 39.9923 132.538 39.9923C130.999 39.9923 129.791 39.5219 128.911 38.5822C128.034 37.6425 127.595 36.3807 127.595 34.7977C127.595 33.2438 128.003 31.9497 128.821 30.9177C129.678 29.8158 130.835 29.2649 132.292 29.2649C133.722 29.2649 134.805 29.8158 135.541 30.9177C136.123 31.7929 136.416 32.8754 136.416 34.1609ZM134.313 33.567C134.327 32.8883 134.183 32.3019 133.885 31.8069C133.503 31.17 132.916 30.8522 132.127 30.8522C131.406 30.8522 130.82 31.1625 130.372 31.7854C130.005 32.2805 129.786 32.8743 129.719 33.5659H134.313V33.567Z" fill="black"/>
</g>
<path d="M60.8506 15.152C60.3336 15.757 59.5966 16.12 58.7496 16.12C57.1546 16.12 55.9336 14.844 55.9336 13.227C55.9336 11.61 57.1546 10.323 58.7496 10.323C59.5856 10.323 60.3116 10.697 60.8286 11.258L61.5986 10.62C60.9276 9.828 59.9266 9.333 58.7496 9.333C56.6046 9.333 54.9106 11.082 54.9106 13.227C54.9106 15.383 56.6046 17.11 58.7496 17.11C59.9376 17.11 60.9496 16.604 61.6206 15.801L60.8506 15.152ZM65.0594 17.11C66.5224 17.11 67.7544 16.043 67.7544 14.415C67.7544 12.787 66.5224 11.753 65.0594 11.753C63.5964 11.753 62.3754 12.787 62.3754 14.415C62.3754 16.043 63.5964 17.11 65.0594 17.11ZM65.0594 16.142C64.1244 16.142 63.3654 15.471 63.3654 14.415C63.3654 13.381 64.1244 12.732 65.0594 12.732C65.9724 12.732 66.7534 13.381 66.7534 14.415C66.7534 15.471 65.9724 16.142 65.0594 16.142ZM74.9935 12.732C75.7415 12.732 76.1705 13.249 76.1705 14.096V17H77.1715V14.03C77.1715 12.578 76.4785 11.753 75.1915 11.753C74.6965 11.753 73.8825 11.896 73.4095 12.809C73.1675 12.248 72.7165 11.907 72.0675 11.808C71.8915 11.775 71.7045 11.764 71.5065 11.775C71.0885 11.808 70.3515 12.061 70.0875 12.633V11.863H69.0865V17H70.0875V14.228C70.0875 13.15 70.8025 12.732 71.5175 12.732C72.1885 12.732 72.6285 13.238 72.6285 14.085V17H73.6295V14.228C73.6295 13.37 74.1465 12.732 74.9935 12.732ZM79.7659 11.863H78.7759V17H79.7659V11.863ZM78.5779 9.971C78.5779 10.356 78.8859 10.62 79.2709 10.62C79.6559 10.62 79.9639 10.356 79.9639 9.971C79.9639 9.586 79.6559 9.322 79.2709 9.322C78.8859 9.322 78.5779 9.586 78.5779 9.971ZM82.441 14.228C82.441 13.139 83.167 12.732 83.893 12.732C84.597 12.732 85.026 13.227 85.026 14.096V17H86.027V14.03C86.027 12.578 85.334 11.753 84.047 11.753C83.486 11.753 82.738 12.017 82.441 12.633V11.863H81.44V17H82.441V14.228ZM88.4082 17.737C88.2762 17.792 87.6932 18.111 87.5722 18.177C88.0672 19.09 88.9362 19.563 89.8932 19.563C91.5982 19.563 92.6982 18.639 92.6982 16.219V11.863H91.7082V12.666C91.3562 12.083 90.6192 11.753 89.9042 11.753C88.4962 11.753 87.2972 12.82 87.2972 14.448C87.2972 16.076 88.4962 17.11 89.9042 17.11C90.6302 17.11 91.3892 16.78 91.7082 16.164C91.7082 16.208 91.7192 16.241 91.7192 16.285C91.7192 17.99 91.0042 18.617 89.8932 18.617C89.3212 18.617 88.7162 18.309 88.4082 17.737ZM91.6972 14.437C91.6972 15.537 90.8282 16.131 89.9922 16.131C89.0682 16.131 88.3202 15.493 88.3202 14.437C88.3202 13.436 89.0682 12.732 89.9922 12.732C90.9052 12.732 91.6972 13.337 91.6972 14.437ZM96.9563 14.811C96.9563 15.999 98.0673 17.11 99.6073 17.11C101.103 17.11 101.994 16.23 102.137 15.13C102.302 13.909 101.532 13.117 100.113 12.754L99.1233 12.512C98.1663 12.281 98.0453 11.786 98.0453 11.456C98.0453 10.763 98.7163 10.312 99.4643 10.312C100.3 10.312 100.894 10.796 100.894 11.555H101.917C101.917 10.191 100.85 9.333 99.4753 9.333C98.1883 9.333 97.0223 10.191 97.0223 11.467C97.0223 12.127 97.2533 13.04 98.8703 13.447L99.8493 13.689C100.531 13.843 101.191 14.228 101.136 15.042C101.048 15.614 100.575 16.153 99.6073 16.153C98.6503 16.153 97.9793 15.471 97.9793 14.811H96.9563ZM105.869 17.11C107.332 17.11 108.564 16.043 108.564 14.415C108.564 12.787 107.332 11.753 105.869 11.753C104.406 11.753 103.185 12.787 103.185 14.415C103.185 16.043 104.406 17.11 105.869 17.11ZM105.869 16.142C104.934 16.142 104.175 15.471 104.175 14.415C104.175 13.381 104.934 12.732 105.869 12.732C106.782 12.732 107.563 13.381 107.563 14.415C107.563 15.471 106.782 16.142 105.869 16.142ZM112.239 17.11C113.702 17.11 114.934 16.043 114.934 14.415C114.934 12.787 113.702 11.753 112.239 11.753C110.776 11.753 109.555 12.787 109.555 14.415C109.555 16.043 110.776 17.11 112.239 17.11ZM112.239 16.142C111.304 16.142 110.545 15.471 110.545 14.415C110.545 13.381 111.304 12.732 112.239 12.732C113.152 12.732 113.933 13.381 113.933 14.415C113.933 15.471 113.152 16.142 112.239 16.142ZM117.267 14.228C117.267 13.139 117.993 12.732 118.719 12.732C119.423 12.732 119.852 13.227 119.852 14.096V17H120.853V14.03C120.853 12.578 120.16 11.753 118.873 11.753C118.312 11.753 117.564 12.017 117.267 12.633V11.863H116.266V17H117.267V14.228Z" fill="#64748B"/>
<defs>
<clipPath id="clip0_1987_20946">
<rect width="179.528" height="55" fill="white"/>
</clipPath>
</defs>
</svg>
