<svg width="158" height="45" viewBox="0 0 158 45" fill="none" xmlns="http://www.w3.org/2000/svg">
<path d="M24.0879 7.82817e-07C19.3401 12.4481 18.3306 24.7382 24.0879 35.492C18.8354 37.3697 14.6291 40.1008 10.7775 44.9446C8.0799 39.214 5.8813 33.1234 5.12526 26.739C4.36923 20.3545 5.14599 13.6377 8.07462 8.04883C14.1244 4.76682 18.8354 2.54777 24.0879 7.82817e-07Z" fill="url(#paint0_linear_6660_12217)"/>
<path d="M0.270801 16.5718C-1.18309 24.9125 3.50022 37.2379 7.57113 41.2593C1.28754 26.961 3.42089 14.3874 4.77786 10.9121C3.03319 12.9973 1.57931 14.9335 0.270801 16.5718Z" fill="url(#paint1_linear_6660_12217)"/>
<path d="M52.2911 16.9359V31.4116H48.6402V22.7303L45.2881 31.4116H42.3417L38.9683 22.7097V31.4116H35.3174V16.9359H39.6302L43.8363 26.9576L47.9997 16.9359H52.2911Z" fill="white"/>
<path d="M60.7667 31.5766C59.5995 31.5766 58.5462 31.336 57.6068 30.8549C56.6816 30.3737 55.9486 29.6864 55.4077 28.7928C54.881 27.8993 54.6177 26.8545 54.6177 25.6585C54.6177 24.4762 54.8881 23.4383 55.429 22.5448C55.9699 21.6374 56.7101 20.9432 57.6495 20.4621C58.5889 19.9809 59.6422 19.7403 60.8094 19.7403C61.9766 19.7403 63.0299 19.9809 63.9693 20.4621C64.9087 20.9432 65.6489 21.6374 66.1898 22.5448C66.7306 23.4383 67.0011 24.4762 67.0011 25.6585C67.0011 26.8407 66.7235 27.8855 66.1684 28.7928C65.6275 29.6864 64.8803 30.3737 63.9266 30.8549C62.9872 31.336 61.9339 31.5766 60.7667 31.5766ZM60.7667 28.5247C61.4641 28.5247 62.0548 28.2773 62.5388 27.7824C63.037 27.2875 63.2861 26.5795 63.2861 25.6585C63.2861 24.7374 63.0441 24.0294 62.5601 23.5345C62.0904 23.0396 61.5068 22.7922 60.8094 22.7922C60.0977 22.7922 59.507 23.0396 59.0373 23.5345C58.5676 24.0157 58.3327 24.7237 58.3327 25.6585C58.3327 26.5795 58.5605 27.2875 59.0159 27.7824C59.4857 28.2773 60.0692 28.5247 60.7667 28.5247Z" fill="white"/>
<path d="M76.6242 19.7816C78.0191 19.7816 79.1294 20.2215 79.9549 21.1013C80.7947 21.9674 81.2146 23.1634 81.2146 24.6893V31.4116H77.585V25.1636C77.585 24.3937 77.3786 23.7957 76.9658 23.3696C76.5531 22.9434 75.9979 22.7303 75.3005 22.7303C74.603 22.7303 74.0479 22.9434 73.6351 23.3696C73.2224 23.7957 73.016 24.3937 73.016 25.1636V31.4116H69.365V19.9053H73.016V21.4312C73.386 20.9226 73.8842 20.5239 74.5105 20.2352C75.1368 19.9328 75.8414 19.7816 76.6242 19.7816Z" fill="white"/>
<path d="M95.4091 25.4729C95.4091 25.8028 95.3878 26.1465 95.3451 26.5039H87.0824C87.1393 27.2188 87.3742 27.7687 87.7869 28.1536C88.214 28.5247 88.7335 28.7103 89.3455 28.7103C90.2565 28.7103 90.8899 28.3392 91.2457 27.5968H95.1316C94.9323 28.3529 94.5693 29.0334 94.0427 29.6383C93.5303 30.2431 92.8826 30.7174 92.0998 31.0611C91.3169 31.4048 90.4415 31.5766 89.4736 31.5766C88.3065 31.5766 87.2674 31.336 86.3564 30.8549C85.4455 30.3737 84.7338 29.6864 84.2214 28.7928C83.709 27.8993 83.4528 26.8545 83.4528 25.6585C83.4528 24.4625 83.7018 23.4177 84.2 22.5241C84.7124 21.6306 85.4241 20.9432 86.3351 20.4621C87.2461 19.9809 88.2922 19.7403 89.4736 19.7403C90.6266 19.7403 91.6514 19.974 92.5481 20.4414C93.4449 20.9088 94.1423 21.5756 94.6405 22.4416C95.1529 23.3077 95.4091 24.3181 95.4091 25.4729ZM91.6728 24.545C91.6728 23.9401 91.4592 23.4589 91.0322 23.1015C90.6052 22.7441 90.0715 22.5654 89.4309 22.5654C88.8189 22.5654 88.2994 22.7372 87.8723 23.0809C87.4596 23.4246 87.2034 23.9126 87.1037 24.545H91.6728Z" fill="white"/>
<path d="M109.932 19.9053L102.459 36.8761H98.5308L101.264 31.0198L96.4171 19.9053H100.495L103.249 27.1019L105.982 19.9053H109.932Z" fill="white"/>
<path d="M121.437 16.9359V19.761H115.33V22.8128H119.899V25.5554H115.33V31.4116H111.679V16.9359H121.437Z" fill="white"/>
<path d="M127.433 16.1523V31.4116H123.782V16.1523H127.433Z" fill="white"/>
<path d="M129.78 25.6379C129.78 24.4556 130.008 23.4177 130.464 22.5241C130.933 21.6306 131.567 20.9432 132.364 20.4621C133.161 19.9809 134.05 19.7403 135.033 19.7403C135.872 19.7403 136.605 19.9053 137.232 20.2352C137.872 20.5652 138.363 20.9982 138.705 21.5343V19.9053H142.356V31.4116H138.705V29.7826C138.349 30.3187 137.851 30.7518 137.21 31.0817C136.584 31.4116 135.851 31.5766 135.011 31.5766C134.043 31.5766 133.161 31.336 132.364 30.8549C131.567 30.36 130.933 29.6658 130.464 28.7722C130.008 27.8649 129.78 26.8201 129.78 25.6379ZM138.705 25.6585C138.705 24.7787 138.449 24.0844 137.936 23.5758C137.438 23.0671 136.826 22.8128 136.1 22.8128C135.374 22.8128 134.755 23.0671 134.243 23.5758C133.744 24.0707 133.495 24.758 133.495 25.6379C133.495 26.5177 133.744 27.2188 134.243 27.7412C134.755 28.2498 135.374 28.5041 136.1 28.5041C136.826 28.5041 137.438 28.2498 137.936 27.7412C138.449 27.2325 138.705 26.5383 138.705 25.6585Z" fill="white"/>
<path d="M149.075 21.5343C149.431 20.9982 149.922 20.5652 150.548 20.2352C151.175 19.9053 151.908 19.7403 152.747 19.7403C153.73 19.7403 154.619 19.9809 155.416 20.4621C156.213 20.9432 156.84 21.6306 157.295 22.5241C157.765 23.4177 158 24.4556 158 25.6379C158 26.8201 157.765 27.8649 157.295 28.7722C156.84 29.6658 156.213 30.36 155.416 30.8549C154.619 31.336 153.73 31.5766 152.747 31.5766C151.922 31.5766 151.189 31.4116 150.548 31.0817C149.922 30.7518 149.431 30.3256 149.075 29.8032V36.8967H145.424V19.9053H149.075V21.5343ZM154.285 25.6379C154.285 24.758 154.028 24.0707 153.516 23.5758C153.018 23.0671 152.399 22.8128 151.659 22.8128C150.933 22.8128 150.313 23.0671 149.801 23.5758C149.303 24.0844 149.054 24.7787 149.054 25.6585C149.054 26.5383 149.303 27.2325 149.801 27.7412C150.313 28.2498 150.933 28.5041 151.659 28.5041C152.384 28.5041 153.004 28.2498 153.516 27.7412C154.028 27.2188 154.285 26.5177 154.285 25.6379Z" fill="white"/>
<defs>
<linearGradient id="paint0_linear_6660_12217" x1="5.91546" y1="35.2379" x2="7.42375" y2="10.5591" gradientUnits="userSpaceOnUse">
<stop stop-color="#00CEC2"/>
<stop offset="1" stop-color="#705BFF"/>
</linearGradient>
<linearGradient id="paint1_linear_6660_12217" x1="4.92361" y1="33.7" x2="-7.46551" y2="20.2949" gradientUnits="userSpaceOnUse">
<stop stop-color="#00CEC2"/>
<stop offset="1" stop-color="#705BFF"/>
</linearGradient>
</defs>
</svg>
