<svg width="26" height="26" viewBox="0 0 26 26" fill="none" xmlns="http://www.w3.org/2000/svg">
<g clip-path="url(#clip0_6525_18193)">
<path d="M9.53871 6.97413C8.89917 6.92309 8.25663 6.90507 7.58105 6.87305C7.61608 6.96913 7.62209 7.01817 7.64811 7.0532C10.6056 11.0406 13.5631 15.0279 16.5246 19.0123C16.5897 19.0994 16.6948 19.2135 16.7848 19.2155C17.4054 19.2335 18.0269 19.2245 18.6814 19.2245C18.6334 19.0904 18.6284 19.0544 18.6094 19.0293C15.7059 15.085 12.8035 11.1397 9.89301 7.20032C9.81394 7.09323 9.66382 6.98414 9.53871 6.97413Z" fill="white"/>
<path d="M13 0C5.81992 0 0 5.81992 0 13C0 20.1801 5.81992 26 13 26C20.1801 26 26 20.1801 26 13C26 5.81992 20.1801 0 13 0ZM16.4159 20.142C16.2648 20.139 16.0856 19.9489 15.9755 19.8028C14.7765 18.2234 13.5885 16.6341 12.3975 15.0487C12.2984 14.9176 12.1933 14.7905 12.0652 14.6274C11.5648 15.1518 11.0844 15.6522 10.607 16.1557C9.54007 17.2806 8.43414 18.3715 7.42428 19.5455C6.91385 20.139 6.36439 20.2561 5.58673 20.101C7.5594 17.9982 9.50104 15.9285 11.4767 13.8227C9.53006 11.1885 7.59343 8.56725 5.61275 5.88798C5.79691 5.86897 5.91801 5.84495 6.03811 5.84495C7.23812 5.84194 8.43914 5.85195 9.63916 5.83594C9.93841 5.83193 10.1246 5.92501 10.2997 6.16922C11.3896 7.6845 12.4956 9.18777 13.5975 10.695C13.7046 10.8422 13.8167 10.9863 13.9618 11.1785C15.4341 9.61213 16.9003 8.12988 18.2675 6.56155C18.8369 5.908 19.4384 5.80291 20.2732 5.95704C18.3565 7.98175 16.4729 9.97144 14.5523 12.0002C16.4859 14.6904 18.4136 17.3737 20.4153 20.1591C19.0021 20.1581 17.709 20.1691 16.4159 20.142Z" fill="white"/>
</g>
<defs>
<clipPath id="clip0_6525_18193">
<rect width="26" height="26" fill="white"/>
</clipPath>
</defs>
</svg>
