<svg width="34" height="34" viewBox="0 0 34 34" fill="none" xmlns="http://www.w3.org/2000/svg">
<path d="M21.2503 32.2298H12.7503C6.50283 32.2298 4.60449 30.3315 4.60449 24.084V9.91732C4.60449 3.66982 6.50283 1.77148 12.7503 1.77148H21.2503C27.4978 1.77148 29.3962 3.66982 29.3962 9.91732V24.084C29.3962 30.3315 27.4978 32.2298 21.2503 32.2298ZM12.7503 3.89648C7.67866 3.89648 6.72949 4.85982 6.72949 9.91732V24.084C6.72949 29.1415 7.67866 30.1048 12.7503 30.1048H21.2503C26.322 30.1048 27.2712 29.1415 27.2712 24.084V9.91732C27.2712 4.85982 26.322 3.89648 21.2503 3.89648H12.7503Z" fill="url(#paint0_linear_6710_17380)"/>
<path d="M19.8337 8.85352H14.167C13.5862 8.85352 13.1045 8.37185 13.1045 7.79102C13.1045 7.21018 13.5862 6.72852 14.167 6.72852H19.8337C20.4145 6.72852 20.8962 7.21018 20.8962 7.79102C20.8962 8.37185 20.4145 8.85352 19.8337 8.85352Z" fill="url(#paint1_linear_6710_17380)"/>
<path d="M16.9995 28.1358C15.2004 28.1358 13.7412 26.6766 13.7412 24.8775C13.7412 23.0783 15.2004 21.6191 16.9995 21.6191C18.7987 21.6191 20.2579 23.0783 20.2579 24.8775C20.2579 26.6766 18.7987 28.1358 16.9995 28.1358ZM16.9995 23.73C16.3762 23.73 15.8662 24.24 15.8662 24.8633C15.8662 25.4866 16.3762 25.9966 16.9995 25.9966C17.6229 25.9966 18.1329 25.4866 18.1329 24.8633C18.1329 24.24 17.6229 23.73 16.9995 23.73Z" fill="url(#paint2_linear_6710_17380)"/>
<defs>
<linearGradient id="paint0_linear_6710_17380" x1="3.29137" y1="12.0103" x2="24.4445" y2="28.334" gradientUnits="userSpaceOnUse">
<stop stop-color="#00CEC2"/>
<stop stop-color="#00CEC2"/>
<stop offset="1" stop-color="#705BFF"/>
</linearGradient>
<linearGradient id="paint1_linear_6710_17380" x1="12.6918" y1="7.44285" x2="13.5025" y2="10.2609" gradientUnits="userSpaceOnUse">
<stop stop-color="#00CEC2"/>
<stop stop-color="#00CEC2"/>
<stop offset="1" stop-color="#705BFF"/>
</linearGradient>
<linearGradient id="paint2_linear_6710_17380" x1="13.396" y1="23.8098" x2="18.068" y2="28.2392" gradientUnits="userSpaceOnUse">
<stop stop-color="#00CEC2"/>
<stop stop-color="#00CEC2"/>
<stop offset="1" stop-color="#705BFF"/>
</linearGradient>
</defs>
</svg>
